<svg xmlns="http://www.w3.org/2000/svg" viewBox="0 0 261.97 261.47"><title>pencil-icon</title><g id="Layer_2" data-name="Layer 2"><g id="Layer_1-2" data-name="Layer 1"><path fill="white" stroke="green" d="M0,249.44C2.5,239,5.94,228.61,7.28,218,9,204.2,16,194.28,26,186.78l49.22,49.14c-7.06,7-13.68,15.92-26.3,17.55-11.34,1.46-22.45,4.71-33.66,7.18-8.51,1.87-11,.87-15.28-6.2Z"/><path fill="white" stroke="green" d="M262,48.47l-25.77,27L186.81,26c7.51-7.62,15.43-15.87,23.63-23.84a6.63,6.63,0,0,1,9.89.08c14,14,27.77,28.13,41.63,42.21Z"/><path fill="white" stroke="green" d="M94.78,214.69,47,166.88,166.93,47l47.72,47.81Z"/></g></g></svg>